<svg width="30" height="25" viewBox="0 0 30 25" fill="none" xmlns="http://www.w3.org/2000/svg">
<g clip-path="url(#clip0_1081_597)">
<path d="M16.2709 22.2847H13.7289C13.6156 22.2847 13.5069 22.2406 13.4269 22.1623C13.3468 22.0839 13.3018 21.9777 13.3018 21.8669V1.68709C13.3018 1.24651 13.4807 0.823973 13.7991 0.512436C14.1176 0.200899 14.5495 0.0258789 14.9999 0.0258789C15.4503 0.0258789 15.8822 0.200899 16.2006 0.512436C16.5191 0.823973 16.698 1.24651 16.698 1.68709V21.8673C16.6979 21.978 16.6529 22.0842 16.5728 22.1624C16.4927 22.2407 16.3841 22.2847 16.2709 22.2847ZM14.1559 21.449H15.8438V1.68709C15.8438 1.46813 15.7549 1.25814 15.5966 1.10331C15.4384 0.948479 15.2237 0.861497 14.9999 0.861497C14.7761 0.861497 14.5614 0.948479 14.4031 1.10331C14.2449 1.25814 14.1559 1.46813 14.1559 1.68709V21.449Z" fill="#D0A144"/>
<path d="M4.70682 5.62696H3.24061C2.89274 5.62085 2.56122 5.48138 2.31742 5.23856C2.07361 4.99574 1.93701 4.66898 1.93701 4.32862C1.93701 3.98825 2.07361 3.6615 2.31742 3.41867C2.56122 3.17585 2.89274 3.03638 3.24061 3.03027H4.49883C4.6121 3.03027 4.72073 3.07429 4.80083 3.15265C4.88093 3.231 4.92592 3.33727 4.92592 3.44808C4.92592 3.55889 4.88093 3.66516 4.80083 3.74352C4.72073 3.82187 4.6121 3.86589 4.49883 3.86589H3.24061C3.11762 3.86951 3.00091 3.91984 2.91522 4.00623C2.82953 4.09261 2.7816 4.20825 2.7816 4.32862C2.7816 4.44899 2.82953 4.56462 2.91522 4.651C3.00091 4.73739 3.11762 4.78772 3.24061 4.79134H4.70682C4.8201 4.79134 4.92873 4.83536 5.00882 4.91371C5.08892 4.99207 5.13392 5.09834 5.13392 5.20915C5.13392 5.31996 5.08892 5.42623 5.00882 5.50459C4.92873 5.58294 4.8201 5.62696 4.70682 5.62696Z" fill="#D0A144"/>
<path d="M13.7288 5.62696H7.29038C7.1771 5.62696 7.06847 5.58294 6.98837 5.50459C6.90828 5.42623 6.86328 5.31996 6.86328 5.20915C6.86328 5.09834 6.90828 4.99207 6.98837 4.91371C7.06847 4.83536 7.1771 4.79134 7.29038 4.79134H13.3017V3.86589H7.49794C7.38467 3.86589 7.27604 3.82187 7.19594 3.74352C7.11585 3.66516 7.07085 3.55889 7.07085 3.44808C7.07085 3.33727 7.11585 3.231 7.19594 3.15265C7.27604 3.07429 7.38467 3.03027 7.49794 3.03027H13.7288C13.8421 3.03027 13.9507 3.07429 14.0308 3.15265C14.1109 3.231 14.1559 3.33727 14.1559 3.44808V5.20915C14.1559 5.31996 14.1109 5.42623 14.0308 5.50459C13.9507 5.58294 13.8421 5.62696 13.7288 5.62696Z" fill="#D0A144"/>
<path d="M22.6167 5.62696H16.2713C16.1581 5.62696 16.0494 5.58294 15.9693 5.50459C15.8892 5.42623 15.8442 5.31996 15.8442 5.20915V3.44808C15.8442 3.33727 15.8892 3.231 15.9693 3.15265C16.0494 3.07429 16.1581 3.03027 16.2713 3.03027H22.4091C22.5224 3.03027 22.631 3.07429 22.7111 3.15265C22.7912 3.231 22.8362 3.33727 22.8362 3.44808C22.8362 3.55889 22.7912 3.66516 22.7111 3.74352C22.631 3.82187 22.5224 3.86589 22.4091 3.86589H16.6984V4.79134H22.6167C22.7299 4.79134 22.8386 4.83536 22.9187 4.91371C22.9988 4.99207 23.0438 5.09834 23.0438 5.20915C23.0438 5.31996 22.9988 5.42623 22.9187 5.50459C22.8386 5.58294 22.7299 5.62696 22.6167 5.62696Z" fill="#D0A144"/>
<path d="M26.7548 5.62696H25.2928C25.1795 5.62696 25.0709 5.58294 24.9908 5.50459C24.9107 5.42623 24.8657 5.31996 24.8657 5.20915C24.8657 5.09834 24.9107 4.99207 24.9908 4.91371C25.0709 4.83536 25.1795 4.79134 25.2928 4.79134H26.7548C26.8778 4.78772 26.9945 4.73739 27.0802 4.651C27.1658 4.56462 27.2138 4.44899 27.2138 4.32862C27.2138 4.20825 27.1658 4.09261 27.0802 4.00623C26.9945 3.91984 26.8778 3.86951 26.7548 3.86589H25.5034C25.3901 3.86589 25.2815 3.82187 25.2014 3.74352C25.1213 3.66516 25.0763 3.55889 25.0763 3.44808C25.0763 3.33727 25.1213 3.231 25.2014 3.15265C25.2815 3.07429 25.3901 3.03027 25.5034 3.03027H26.7548C27.1026 3.03638 27.4341 3.17585 27.678 3.41867C27.9218 3.6615 28.0584 3.98825 28.0584 4.32862C28.0584 4.66898 27.9218 4.99574 27.678 5.23856C27.4341 5.48138 27.1026 5.62085 26.7548 5.62696Z" fill="#D0A144"/>
<path d="M20.4092 24.9735H9.59093C9.5261 24.9735 9.46213 24.959 9.40387 24.9312C9.34561 24.9034 9.29458 24.863 9.25466 24.813C9.21473 24.763 9.18696 24.7048 9.17345 24.6428C9.15993 24.5808 9.16103 24.5165 9.17665 24.455C9.35275 23.6287 9.80625 22.8838 10.465 22.3387C11.1238 21.7936 11.9499 21.4796 12.8121 21.4468H17.1881C18.0502 21.4796 18.8764 21.7936 19.5352 22.3387C20.1939 22.8838 20.6474 23.6287 20.8235 24.455C20.8391 24.5165 20.8402 24.5808 20.8267 24.6428C20.8132 24.7048 20.7854 24.763 20.7455 24.813C20.7056 24.863 20.6545 24.9034 20.5963 24.9312C20.538 24.959 20.474 24.9735 20.4092 24.9735ZM10.1816 24.1379H19.8185C19.6152 23.61 19.2572 23.1525 18.7893 22.8228C18.3213 22.4931 17.7643 22.3058 17.1881 22.2845H12.8121C12.2358 22.3058 11.6788 22.4931 11.2109 22.8228C10.743 23.1525 10.3849 23.61 10.1816 24.1379Z" fill="#D0A144"/>
<path d="M21.5658 24.9738H8.43442C8.32115 24.9738 8.21251 24.9298 8.13242 24.8514C8.05232 24.7731 8.00732 24.6668 8.00732 24.556C8.00732 24.4452 8.05232 24.3389 8.13242 24.2606C8.21251 24.1822 8.32115 24.1382 8.43442 24.1382H21.5658C21.6791 24.1382 21.7877 24.1822 21.8678 24.2606C21.9479 24.3389 21.9929 24.4452 21.9929 24.556C21.9929 24.6668 21.9479 24.7731 21.8678 24.8514C21.7877 24.9298 21.6791 24.9738 21.5658 24.9738Z" fill="#D0A144"/>
<path d="M29.5211 16.103H18.4845C18.413 16.103 18.3427 16.0855 18.2799 16.0521C18.2171 16.0186 18.1639 15.9703 18.1252 15.9115C18.0865 15.8527 18.0635 15.7853 18.0583 15.7156C18.0531 15.6458 18.0658 15.5759 18.0954 15.5122L22.7849 5.4121C22.808 5.362 22.841 5.31684 22.882 5.27922C22.9229 5.2416 22.9711 5.21225 23.0237 5.19287C23.0762 5.17348 23.1322 5.16443 23.1883 5.16624C23.2445 5.16805 23.2997 5.18068 23.3509 5.20341C23.4021 5.22614 23.4481 5.25851 23.4865 5.29869C23.5248 5.33886 23.5547 5.38604 23.5743 5.43753C23.594 5.48901 23.6031 5.54379 23.6011 5.59872C23.5991 5.65365 23.5861 5.70765 23.5627 5.75763L19.1474 15.2674H28.8565L24.4451 5.75763C24.4219 5.70765 24.409 5.65369 24.4072 5.59884C24.4053 5.54399 24.4145 5.48932 24.4343 5.43795C24.454 5.38658 24.4839 5.33952 24.5223 5.29946C24.5606 5.25939 24.6067 5.22711 24.6577 5.20445C24.7088 5.18179 24.764 5.1692 24.8201 5.16739C24.8761 5.16558 24.932 5.1746 24.9845 5.19392C25.037 5.21324 25.0851 5.24249 25.1261 5.28C25.1671 5.3175 25.2001 5.36254 25.2232 5.41252L29.908 15.5126C29.9374 15.5761 29.9502 15.6458 29.945 15.7153C29.9399 15.7849 29.917 15.852 29.8786 15.9107C29.8401 15.9694 29.7873 16.0177 29.7248 16.0513C29.6624 16.0849 29.5923 16.1027 29.5211 16.103Z" fill="#D0A144"/>
<path d="M24.0465 21.4324H23.9577C20.5379 21.4324 18.0557 19.0158 18.0557 15.6859C18.0557 15.5751 18.1007 15.4688 18.1808 15.3904C18.2609 15.3121 18.3695 15.2681 18.4828 15.2681H29.521C29.6343 15.2681 29.7429 15.3121 29.823 15.3904C29.9031 15.4688 29.9481 15.5751 29.9481 15.6859C29.9481 19.0179 27.4658 21.4324 24.0465 21.4324ZM18.9248 16.1037C19.1153 18.7702 21.1307 20.5968 23.9577 20.5968H24.0465C26.873 20.5968 28.8889 18.7702 29.0789 16.1037H18.9248Z" fill="#D0A144"/>
<path d="M24.0024 6.22313C23.5871 6.22322 23.1811 6.10281 22.8357 5.87716C22.4904 5.6515 22.2212 5.33072 22.0622 4.95539C21.9033 4.58006 21.8617 4.16705 21.9427 3.76858C22.0237 3.37012 22.2236 3.0041 22.5173 2.71682C22.811 2.42955 23.1851 2.23392 23.5924 2.15468C23.9997 2.07544 24.4219 2.11615 24.8056 2.27166C25.1893 2.42717 25.5172 2.6905 25.7478 3.02833C25.9785 3.36617 26.1016 3.76333 26.1015 4.1696C26.1008 4.71403 25.8795 5.23597 25.4859 5.62094C25.0924 6.0059 24.5589 6.22247 24.0024 6.22313ZM24.0024 2.95127C23.756 2.95119 23.5152 3.02257 23.3103 3.15639C23.1055 3.29022 22.9458 3.48046 22.8515 3.70308C22.7571 3.92569 22.7324 4.17067 22.7804 4.40703C22.8284 4.64339 22.947 4.86052 23.1211 5.03095C23.2953 5.20137 23.5172 5.31745 23.7588 5.36449C24.0004 5.41154 24.2508 5.38743 24.4784 5.29523C24.706 5.20303 24.9005 5.04688 25.0374 4.84651C25.1743 4.64615 25.2473 4.41058 25.2473 4.1696C25.247 3.84666 25.1157 3.53702 24.8823 3.30863C24.6489 3.08023 24.3325 2.95171 24.0024 2.95127Z" fill="#D0A144"/>
<path d="M11.5148 16.1032H0.478733C0.407273 16.1032 0.33696 16.0856 0.274235 16.0521C0.21151 16.0186 0.158378 15.9703 0.119705 15.9115C0.0810325 15.8527 0.0580559 15.7854 0.0528798 15.7157C0.0477037 15.6459 0.0604936 15.576 0.090078 15.5124L4.78042 5.41231C4.82726 5.31136 4.91317 5.23275 5.01926 5.19377C5.12534 5.15479 5.24292 5.15863 5.34611 5.20445C5.4493 5.25027 5.52966 5.33431 5.5695 5.43809C5.60935 5.54187 5.60542 5.65689 5.55859 5.75784L1.14329 15.2676H10.8524L6.44096 5.75784C6.41643 5.70769 6.40238 5.65327 6.39962 5.59774C6.39686 5.54222 6.40546 5.48672 6.42491 5.43449C6.44436 5.38225 6.47426 5.33434 6.51288 5.29356C6.55149 5.25278 6.59804 5.21995 6.64979 5.19698C6.70153 5.17402 6.75745 5.16139 6.81425 5.15983C6.87105 5.15827 6.9276 5.16782 6.98058 5.18791C7.03356 5.20801 7.08191 5.23824 7.1228 5.27684C7.16369 5.31545 7.19629 5.36164 7.2187 5.41273L11.9039 15.5128C11.9334 15.5765 11.9461 15.6464 11.9409 15.7161C11.9356 15.7858 11.9126 15.8531 11.8739 15.9118C11.8352 15.9705 11.782 16.0188 11.7193 16.0523C11.6566 16.0857 11.5863 16.1032 11.5148 16.1032Z" fill="#D0A144"/>
<path d="M6.04217 21.4324H5.95334C2.53403 21.4324 0.0517578 19.0179 0.0517578 15.6859C0.0517578 15.5751 0.096755 15.4688 0.176851 15.3904C0.256946 15.3121 0.365579 15.2681 0.478852 15.2681H11.5171C11.6304 15.2681 11.739 15.3121 11.8191 15.3904C11.8992 15.4688 11.9442 15.5751 11.9442 15.6859C11.9442 19.0179 9.46191 21.4324 6.04217 21.4324ZM0.920893 16.1037C1.11095 18.7702 3.12683 20.5968 5.95334 20.5968H6.04217C8.86911 20.5968 10.8846 18.7702 11.075 16.1037H0.920893Z" fill="#D0A144"/>
<path d="M5.99754 6.22313C5.58226 6.22313 5.17631 6.10266 4.83103 5.87695C4.48574 5.65124 4.21663 5.33044 4.05773 4.9551C3.89883 4.57977 3.85728 4.16676 3.93832 3.76833C4.01937 3.36989 4.21938 3.00391 4.51306 2.71668C4.80673 2.42944 5.18089 2.23386 5.58819 2.15465C5.9955 2.07545 6.41768 2.11618 6.80132 2.2717C7.18496 2.42723 7.51284 2.69055 7.7435 3.02838C7.97415 3.3662 8.09722 3.76335 8.09714 4.1696C8.09646 4.7141 7.87502 5.2361 7.4814 5.62108C7.08779 6.00606 6.55414 6.22258 5.99754 6.22313ZM5.99754 2.95127C5.75123 2.95127 5.51044 3.02273 5.30563 3.1566C5.10083 3.29047 4.9412 3.48075 4.84694 3.70337C4.75268 3.92599 4.72801 4.17095 4.77607 4.40729C4.82412 4.64362 4.94274 4.86071 5.11691 5.03109C5.29108 5.20148 5.51299 5.31751 5.75458 5.36452C5.99616 5.41153 6.24657 5.38741 6.47414 5.29519C6.70171 5.20298 6.89621 5.04683 7.03306 4.84647C7.16991 4.64612 7.24295 4.41057 7.24295 4.1696C7.24261 3.84658 7.11129 3.53689 6.8778 3.30848C6.64432 3.08007 6.32774 2.9516 5.99754 2.95127Z" fill="#D0A144"/>
</g>
<defs>
<clipPath id="clip0_1081_597">
<rect width="30" height="25" fill="white"/>
</clipPath>
</defs>
</svg>
