<svg width="24" height="24" viewBox="0 0 24 24" fill="none" xmlns="http://www.w3.org/2000/svg">
<path d="M21.16 1H1.84C1.37537 1 1 1.37537 1 1.84V21.16C1 21.6246 1.37537 22 1.84 22H21.16C21.6246 22 22 21.6246 22 21.16V1.84C22 1.37537 21.6246 1 21.16 1ZM18.7345 7.12937H17.0571C15.742 7.12937 15.4874 7.75412 15.4874 8.67287V10.6967H18.6269L18.2174 13.8651H15.4874V22H12.214V13.8678H9.47612V10.6967H12.214V8.3605C12.214 5.64887 13.8704 4.171 16.2906 4.171C17.4509 4.171 18.4457 4.25763 18.7371 4.297V7.12937H18.7345Z" fill="#295C7A"/>
</svg>
