<svg width="33" height="27" viewBox="0 0 33 27" fill="none" xmlns="http://www.w3.org/2000/svg">
<g clip-path="url(#clip0_965_46)">
<path d="M12.4665 5.00879H7.90828C7.48643 5.00879 7.14453 5.34978 7.14453 5.77051C7.14453 6.19124 7.48643 6.53223 7.90828 6.53223H12.4665C12.8882 6.53223 13.2302 6.19124 13.2302 5.77051C13.2302 5.34978 12.8882 5.00879 12.4665 5.00879Z" fill="#D0A144"/>
<path d="M12.4665 8.05615H7.90828C7.48643 8.05615 7.14453 8.39714 7.14453 8.81787C7.14453 9.2386 7.48643 9.57959 7.90828 9.57959H12.4665C12.8882 9.57959 13.2302 9.2386 13.2302 8.81787C13.2302 8.39714 12.8882 8.05615 12.4665 8.05615Z" fill="#D0A144"/>
<path d="M12.4665 11.103H7.90828C7.48643 11.103 7.14453 11.444 7.14453 11.8647C7.14453 12.2855 7.48643 12.6265 7.90828 12.6265H12.4665C12.8882 12.6265 13.2302 12.2855 13.2302 11.8647C13.2302 11.444 12.8882 11.103 12.4665 11.103Z" fill="#D0A144"/>
<path d="M12.4665 14.1499H7.90828C7.48643 14.1499 7.14453 14.4909 7.14453 14.9116C7.14453 15.3324 7.48643 15.6733 7.90828 15.6733H12.4665C12.8882 15.6733 13.2302 15.3324 13.2302 14.9116C13.2302 14.4909 12.8882 14.1499 12.4665 14.1499Z" fill="#D0A144"/>
<path d="M12.4665 17.248H7.90828C7.48643 17.248 7.14453 17.5892 7.14453 18.0098C7.14453 18.4305 7.48643 18.7715 7.90828 18.7715H12.4665C12.8882 18.7715 13.2302 18.4305 13.2302 18.0098C13.2302 17.5892 12.8882 17.248 12.4665 17.248Z" fill="#D0A144"/>
<path d="M15.0313 6.53223H19.5895C20.0114 6.53223 20.3533 6.19124 20.3533 5.77051C20.3533 5.34978 20.0114 5.00879 19.5895 5.00879H15.0313C14.6097 5.00879 14.2676 5.34978 14.2676 5.77051C14.2676 6.19124 14.6097 6.53223 15.0313 6.53223Z" fill="#D0A144"/>
<path d="M15.0313 9.57959H19.5895C20.0114 9.57959 20.3533 9.2386 20.3533 8.81787C20.3533 8.39714 20.0114 8.05615 19.5895 8.05615H15.0313C14.6097 8.05615 14.2676 8.39714 14.2676 8.81787C14.2676 9.2386 14.6097 9.57959 15.0313 9.57959Z" fill="#D0A144"/>
<path d="M17.9905 11.8647C17.9905 11.444 17.6486 11.103 17.2267 11.103H15.0313C14.6097 11.103 14.2676 11.444 14.2676 11.8647C14.2676 12.2855 14.6097 12.6265 15.0313 12.6265H17.2267C17.6486 12.6265 17.9905 12.2855 17.9905 11.8647Z" fill="#D0A144"/>
<path d="M25.2258 17.5695C24.8968 17.3062 24.4163 17.3588 24.1522 17.6869L22.1851 20.1327L20.9673 19.2528C20.6258 19.0058 20.148 19.082 19.9006 19.4226C19.6532 19.7634 19.7296 20.2396 20.0711 20.4864L21.8776 21.7918C22.0129 21.8894 22.1696 21.9368 22.3253 21.9368C22.5495 21.9368 22.771 21.8386 22.9214 21.6516L25.3437 18.6402C25.6077 18.3121 25.5549 17.8327 25.2258 17.5695Z" fill="#D0A144"/>
<path d="M27.1561 15.2314C26.1612 14.2217 24.8829 13.5854 23.4978 13.3979V3.0677C23.4978 1.37625 22.1179 0 20.422 0H7.07607C5.37992 0 4 1.37625 4 3.0677V20.7128C4 22.4044 5.37992 23.7807 7.07587 23.7807H17.8099C19.0178 25.1958 20.7545 26 22.6334 26C26.131 26 28.9763 23.1602 28.9763 19.6696C28.9763 17.9986 28.3299 16.4224 27.1561 15.2314ZM5.52749 20.7128V3.0677C5.52749 2.21632 6.22223 1.52344 7.07607 1.52344H20.422C21.2758 1.52344 21.9703 2.21632 21.9703 3.0677V13.3737C18.7833 13.7056 16.2906 16.4023 16.2906 19.6696C16.2906 20.5751 16.4799 21.4507 16.8431 22.2571H7.07607C6.22223 22.2571 5.52749 21.5644 5.52749 20.7128ZM22.6334 24.4766C21.1081 24.4766 19.7059 23.7781 18.7861 22.5606C18.1528 21.7221 17.8179 20.7225 17.8179 19.6696C17.8179 17.0191 19.9782 14.8626 22.6334 14.8626C22.6585 14.8626 22.6838 14.863 22.7088 14.8634L22.7206 14.8636C23.9881 14.886 25.1765 15.3958 26.0667 16.2992C26.958 17.2035 27.4488 18.4007 27.4488 19.6696C27.4488 22.3201 25.2887 24.4766 22.6334 24.4766Z" fill="#D0A144"/>
</g>
<defs>
<clipPath id="clip0_965_46">
<rect width="25" height="26" fill="white" transform="translate(4)"/>
</clipPath>
</defs>
</svg>
