<svg width="32" height="27" viewBox="0 0 32 27" fill="none" xmlns="http://www.w3.org/2000/svg">
<g clip-path="url(#clip0_965_31)">
<path d="M9.52093 9.17275C9.33812 8.98994 9.04093 8.98994 8.85816 9.17275C8.67488 9.35604 8.67488 9.65275 8.85816 9.83557C9.04098 10.0188 9.33816 10.0188 9.52093 9.83557C9.70416 9.65275 9.70416 9.35604 9.52093 9.17275Z" fill="#D0A144"/>
<path d="M15.8687 21.9864C16.0754 21.7065 16.1871 21.3692 16.1871 21.0146C16.1871 20.11 15.4511 19.374 14.5465 19.374H6.57803C6.13961 19.374 5.72763 19.5446 5.41792 19.8544C5.10808 20.1642 4.93745 20.5762 4.93745 21.0146C4.93745 21.3778 5.05633 21.7137 5.25691 21.9859C4.51052 22.3783 4 23.1611 4 24.0613V24.5301C4 24.789 4.20991 24.9988 4.46875 24.9988H16.6558C16.9146 24.9988 17.1245 24.789 17.1245 24.5301V24.0613C17.1245 23.1615 16.6145 22.379 15.8687 21.9864ZM6.08078 20.5173C6.21348 20.3845 6.39011 20.3114 6.57803 20.3114H14.5465C14.9342 20.3114 15.2496 20.6269 15.2496 21.0145C15.2496 21.2025 15.1765 21.3791 15.0437 21.5118C14.911 21.6446 14.7344 21.7176 14.5465 21.7176H6.57803C6.19033 21.7176 5.87495 21.4022 5.87495 21.0146C5.87495 20.8266 5.94803 20.65 6.08078 20.5173ZM4.93745 24.0613C4.93745 23.286 5.5683 22.6551 6.34366 22.6551H6.57803H14.5465H14.7809C15.5562 22.6551 16.1871 23.286 16.1871 24.0613H4.93745Z" fill="#D0A144"/>
<path d="M27.5667 20.6933C27.4075 20.4466 27.2175 20.2284 27.002 20.0448L24.8118 18.1345C24.7947 18.1089 24.775 18.0845 24.7523 18.0618C24.7143 18.0238 24.6711 17.9942 24.6253 17.9719L23.3007 16.8167L17.17 11.4687C17.4209 11.2063 17.5591 10.8632 17.5591 10.4984C17.5591 10.1226 17.4128 9.76937 17.1469 9.5035C17.0309 9.38767 16.8991 9.29659 16.7583 9.22989L17.3255 8.6627C17.484 8.70484 17.6469 8.72641 17.8099 8.72641C18.29 8.72636 18.77 8.54364 19.1355 8.1782C19.4898 7.82397 19.6849 7.35311 19.6849 6.85234C19.6849 6.35158 19.4898 5.88072 19.1355 5.52648L15.1583 1.54933C14.804 1.19509 14.3331 1 13.8322 1C13.3316 1 12.8608 1.19509 12.5066 1.54933C12.017 2.03889 11.8559 2.734 12.0221 3.35941L6.36312 9.01834C6.20675 8.97677 6.04405 8.95483 5.87783 8.95483C5.37683 8.95483 4.90616 9.14978 4.5522 9.50369C3.82114 10.2347 3.82114 11.4243 4.5522 12.1554L8.52941 16.1327C8.89498 16.4982 9.37512 16.681 9.85527 16.681C10.3355 16.681 10.8156 16.4982 11.1812 16.1327C11.6707 15.643 11.8319 14.948 11.6657 14.3226L12.2317 13.7565C12.2997 13.8985 12.392 14.0296 12.5067 14.1442C12.7722 14.4098 13.1254 14.5561 13.5011 14.5561C13.8656 14.5561 14.2085 14.4182 14.4712 14.1675L21.0012 21.67C21.0192 21.6981 21.0402 21.7249 21.0648 21.7495C21.0732 21.7578 21.0821 21.7655 21.0909 21.7731L23.0367 24.0087C23.0851 24.0658 23.1368 24.122 23.1905 24.1757C23.7249 24.7099 24.4308 24.9998 25.1719 24.9998C25.3025 24.9998 25.4344 24.9908 25.5665 24.9725C26.4491 24.8504 27.2119 24.3224 27.6591 23.5237C28.1491 22.6484 28.1127 21.5372 27.5667 20.6933ZM13.1696 2.21223C13.3467 2.03509 13.5821 1.9375 13.8323 1.9375C14.0828 1.9375 14.3183 2.03509 14.4954 2.21223L18.4727 6.18944C18.6498 6.36658 18.7474 6.60203 18.7474 6.85239C18.7474 7.10275 18.6498 7.3382 18.4726 7.51534C18.1072 7.88083 17.5126 7.88083 17.1472 7.51534L13.1698 3.53795C13.1697 3.53786 13.1697 3.53781 13.1696 3.53772C12.8041 3.17228 12.8041 2.57767 13.1696 2.21223ZM10.5183 15.4697C10.1527 15.8353 9.55784 15.8353 9.19231 15.4697L5.21511 11.4925C4.84953 11.127 4.84953 10.5322 5.21511 10.1666C5.39192 9.98973 5.62733 9.89233 5.87783 9.89233C6.12828 9.89233 6.36355 9.98969 6.54031 10.1664L10.5182 14.1443C10.8837 14.5097 10.8837 15.1044 10.5183 15.4697ZM12.4918 12.1707L11.1811 13.4814L7.2035 9.50378L12.5066 4.20058L16.4842 8.1782L15.1711 9.49131C15.1669 9.49534 15.1627 9.49928 15.1582 9.50373L12.508 12.154C12.5025 12.1594 12.4972 12.165 12.4918 12.1707ZM14.1655 13.1485C14.1646 13.1495 14.1637 13.1504 14.1627 13.1513L13.8327 13.4814C13.7441 13.5699 13.6264 13.6187 13.5011 13.6187C13.3758 13.6187 13.258 13.5699 13.1695 13.4814C13.0809 13.3928 13.0321 13.2749 13.0321 13.1495C13.0321 13.0268 13.0789 12.9114 13.1639 12.8243L15.8264 10.1617C16.0089 9.98425 16.304 9.98645 16.4843 10.1666C16.5729 10.2552 16.6217 10.373 16.6217 10.4984C16.6217 10.6237 16.573 10.7412 16.4842 10.8298L16.1561 11.158C16.1538 11.1602 16.1516 11.1624 16.1494 11.1647L14.1655 13.1485ZM15.1362 13.5036L16.5062 12.1337L22.3066 17.1931L20.19 19.3097L15.1362 13.5036ZM20.8069 20.0186L23.0147 17.8108L23.7228 18.4285L21.4238 20.7275L20.8069 20.0186ZM26.8412 23.0658C26.5387 23.6059 26.0272 23.9624 25.438 24.0439C24.8501 24.1253 24.2724 23.9317 23.8533 23.5127C23.8172 23.4767 23.7827 23.4392 23.7506 23.4011C23.7491 23.3993 23.7476 23.3975 23.746 23.3958L22.0407 21.4363L24.4309 19.0461L26.3879 20.7531C26.3894 20.7544 26.3909 20.7557 26.3924 20.757C26.5389 20.8816 26.6689 21.0311 26.7792 21.202C27.1337 21.7498 27.1585 22.4988 26.8412 23.0658Z" fill="#D0A144"/>
<path d="M12.8354 5.85799C12.6523 5.67494 12.3556 5.67494 12.1725 5.85799L10.1837 7.8468C10.0006 8.02985 10.0006 8.32666 10.1837 8.50966C10.2752 8.6012 10.3952 8.64695 10.5151 8.64695C10.6351 8.64695 10.755 8.60116 10.8466 8.50966L12.8354 6.52085C13.0184 6.33785 13.0184 6.04108 12.8354 5.85799Z" fill="#D0A144"/>
</g>
<defs>
<clipPath id="clip0_965_31">
<rect width="24" height="24" fill="white" transform="translate(4 1)"/>
</clipPath>
</defs>
</svg>
