<svg width="24" height="24" viewBox="0 0 24 24" fill="none" xmlns="http://www.w3.org/2000/svg">
<path d="M11.9973 6.11248C9.15795 6.11248 6.86644 8.51861 6.86644 11.5C6.86644 14.4814 9.15795 16.8875 11.9973 16.8875C14.8367 16.8875 17.1282 14.4814 17.1282 11.5C17.1282 8.51861 14.8367 6.11248 11.9973 6.11248ZM11.9973 15.0015C10.1611 15.0015 8.66262 13.4281 8.66262 11.5C8.66262 9.57195 10.1611 7.99851 11.9973 7.99851C13.8335 7.99851 15.332 9.57195 15.332 11.5C15.332 13.4281 13.8335 15.0015 11.9973 15.0015ZM17.3383 4.63624C16.6754 4.63624 16.14 5.19837 16.14 5.89446C16.14 6.59056 16.6754 7.15269 17.3383 7.15269C18.0013 7.15269 18.5366 6.59318 18.5366 5.89446C18.5368 5.72917 18.5059 5.56546 18.4458 5.41272C18.3856 5.25997 18.2974 5.12118 18.1861 5.0043C18.0748 4.88742 17.9426 4.79475 17.7971 4.73159C17.6516 4.66843 17.4957 4.63603 17.3383 4.63624ZM21.9989 11.5C21.9989 10.05 22.0114 8.61317 21.9338 7.16582C21.8563 5.48469 21.4911 3.99268 20.3203 2.76335C19.147 1.53139 17.7286 1.15051 16.1275 1.06908C14.7466 0.987647 13.3782 1.00078 11.9998 1.00078C10.6189 1.00078 9.25051 0.987647 7.8721 1.06908C6.27105 1.15051 4.85012 1.53402 3.67935 2.76335C2.50608 3.9953 2.14334 5.48469 2.06579 7.16582C1.98824 8.6158 2.00074 10.0526 2.00074 11.5C2.00074 12.9474 1.98824 14.3868 2.06579 15.8342C2.14334 17.5153 2.50858 19.0073 3.67935 20.2367C4.85262 21.4686 6.27105 21.8495 7.8721 21.9309C9.25301 22.0124 10.6214 21.9992 11.9998 21.9992C13.3807 21.9992 14.7491 22.0124 16.1275 21.9309C17.7286 21.8495 19.1495 21.466 20.3203 20.2367C21.4936 19.0047 21.8563 17.5153 21.9338 15.8342C22.0139 14.3868 21.9989 12.95 21.9989 11.5ZM19.7974 17.6939C19.6148 18.172 19.3947 18.5292 19.0419 18.897C18.6892 19.2674 18.3515 19.4985 17.8962 19.6903C16.5803 20.2393 13.4558 20.1158 11.9973 20.1158C10.5389 20.1158 7.4118 20.2393 6.09593 19.6929C5.64064 19.5012 5.30041 19.27 4.95018 18.8996C4.59745 18.5292 4.37731 18.1746 4.19469 17.6966C3.67434 16.3123 3.79192 13.0314 3.79192 11.5C3.79192 9.96859 3.67434 6.68512 4.19469 5.30344C4.37731 4.82537 4.59745 4.46812 4.95018 4.10038C5.30291 3.73263 5.64064 3.49884 6.09593 3.30709C7.4118 2.76072 10.5389 2.88418 11.9973 2.88418C13.4558 2.88418 16.5828 2.76072 17.8987 3.30709C18.354 3.49884 18.6942 3.73 19.0444 4.10038C19.3972 4.47075 19.6173 4.82537 19.7999 5.30344C20.3203 6.68512 20.2027 9.96859 20.2027 11.5C20.2027 13.0314 20.3203 16.3123 19.7974 17.6939Z" fill="#295C7A"/>
</svg>
