<svg width="243" height="24" viewBox="0 0 243 24" fill="none" xmlns="http://www.w3.org/2000/svg">
<g clip-path="url(#clip0_964_14829)">
<g clip-path="url(#clip1_964_14829)">
<path d="M66.54 0H44.46C43.929 0 43.5 0.429 43.5 0.96V23.04C43.5 23.571 43.929 24 44.46 24H66.54C67.071 24 67.5 23.571 67.5 23.04V0.96C67.5 0.429 67.071 0 66.54 0ZM63.768 7.005H61.851C60.348 7.005 60.057 7.719 60.057 8.769V11.082H63.645L63.177 14.703H60.057V24H56.316V14.706H53.187V11.082H56.316V8.412C56.316 5.313 58.209 3.624 60.975 3.624C62.301 3.624 63.438 3.723 63.771 3.768V7.005H63.768Z" fill="#335BF5"/>
</g>
<g clip-path="url(#clip2_964_14829)">
<path d="M99.5016 5.84744C96.0966 5.84744 93.3486 8.59544 93.3486 12.0004C93.3486 15.4054 96.0966 18.1534 99.5016 18.1534C102.907 18.1534 105.655 15.4054 105.655 12.0004C105.655 8.59544 102.907 5.84744 99.5016 5.84744ZM99.5016 15.9994C97.2996 15.9994 95.5026 14.2024 95.5026 12.0004C95.5026 9.79844 97.2996 8.00144 99.5016 8.00144C101.704 8.00144 103.501 9.79844 103.501 12.0004C103.501 14.2024 101.704 15.9994 99.5016 15.9994ZM105.907 4.16144C105.112 4.16144 104.47 4.80344 104.47 5.59844C104.47 6.39344 105.112 7.03544 105.907 7.03544C106.702 7.03544 107.344 6.39644 107.344 5.59844C107.344 5.40966 107.307 5.22269 107.235 5.04824C107.163 4.87379 107.057 4.71528 106.923 4.5818C106.79 4.44831 106.631 4.34247 106.457 4.27034C106.282 4.19821 106.095 4.1612 105.907 4.16144ZM111.496 12.0004C111.496 10.3444 111.511 8.70344 111.418 7.05044C111.325 5.13044 110.887 3.42644 109.483 2.02244C108.076 0.615437 106.375 0.180437 104.455 0.0874372C102.799 -0.00556279 101.158 0.00943725 99.5046 0.00943725C97.8486 0.00943725 96.2076 -0.00556279 94.5546 0.0874372C92.6346 0.180437 90.9306 0.618437 89.5266 2.02244C88.1196 3.42944 87.6846 5.13044 87.5916 7.05044C87.4986 8.70644 87.5136 10.3474 87.5136 12.0004C87.5136 13.6534 87.4986 15.2974 87.5916 16.9504C87.6846 18.8704 88.1226 20.5744 89.5266 21.9784C90.9336 23.3854 92.6346 23.8204 94.5546 23.9134C96.2106 24.0064 97.8516 23.9914 99.5046 23.9914C101.161 23.9914 102.802 24.0064 104.455 23.9134C106.375 23.8204 108.079 23.3824 109.483 21.9784C110.89 20.5714 111.325 18.8704 111.418 16.9504C111.514 15.2974 111.496 13.6564 111.496 12.0004ZM108.856 19.0744C108.637 19.6204 108.373 20.0284 107.95 20.4484C107.527 20.8714 107.122 21.1354 106.576 21.3544C104.998 21.9814 101.251 21.8404 99.5016 21.8404C97.7526 21.8404 94.0026 21.9814 92.4246 21.3574C91.8786 21.1384 91.4706 20.8744 91.0506 20.4514C90.6276 20.0284 90.3636 19.6234 90.1446 19.0774C89.5206 17.4964 89.6616 13.7494 89.6616 12.0004C89.6616 10.2514 89.5206 6.50144 90.1446 4.92344C90.3636 4.37744 90.6276 3.96944 91.0506 3.54944C91.4736 3.12944 91.8786 2.86244 92.4246 2.64344C94.0026 2.01944 97.7526 2.16044 99.5016 2.16044C101.251 2.16044 105.001 2.01944 106.579 2.64344C107.125 2.86244 107.533 3.12644 107.953 3.54944C108.376 3.97244 108.64 4.37744 108.859 4.92344C109.483 6.50144 109.342 10.2514 109.342 12.0004C109.342 13.7494 109.483 17.4964 108.856 19.0744Z" fill="#E61F5A"/>
</g>
<g clip-path="url(#clip3_964_14829)">
<path d="M155.5 4.46548C154.619 4.85141 153.659 5.12917 152.671 5.23735C153.697 4.61879 154.465 3.64156 154.832 2.48901C153.869 3.07022 152.814 3.47778 151.715 3.6936C151.255 3.19488 150.699 2.79758 150.081 2.52645C149.464 2.25532 148.798 2.11618 148.125 2.11769C145.402 2.11769 143.212 4.3573 143.212 7.10564C143.212 7.49158 143.258 7.87752 143.333 8.24884C139.256 8.03248 135.62 6.05601 133.203 3.0299C132.763 3.79335 132.532 4.66261 132.535 5.54727C132.535 7.27814 133.402 8.80435 134.724 9.70195C133.945 9.6708 133.184 9.45342 132.503 9.06749V9.12889C132.503 11.5527 134.191 13.5613 136.442 14.0233C136.019 14.1347 135.584 14.1916 135.148 14.1929C134.828 14.1929 134.526 14.1607 134.22 14.1168C134.843 16.0933 136.655 17.5289 138.813 17.5757C137.124 18.9177 135.01 19.7071 132.713 19.7071C132.301 19.7071 131.921 19.6925 131.526 19.6457C133.705 21.0637 136.289 21.8824 139.072 21.8824C148.107 21.8824 153.051 14.2864 153.051 7.69332C153.051 7.47696 153.051 7.2606 153.037 7.04424C153.994 6.33377 154.832 5.45371 155.5 4.46548Z" fill="#21A6DF"/>
</g>
<g clip-path="url(#clip4_964_14829)">
<path d="M198.97 5.93166C198.833 5.3987 198.566 4.91276 198.195 4.52249C197.824 4.13221 197.362 3.85129 196.855 3.70783C194.988 3.17664 187.488 3.17664 187.488 3.17664C187.488 3.17664 179.987 3.17664 178.121 3.70783C177.614 3.85129 177.152 4.13221 176.781 4.52249C176.409 4.91276 176.142 5.3987 176.006 5.93166C175.657 7.93335 175.488 9.96501 175.501 11.9999C175.488 14.0348 175.657 16.0665 176.006 18.0682C176.142 18.6012 176.409 19.0871 176.781 19.4774C177.152 19.8676 177.614 20.1486 178.121 20.292C179.987 20.8232 187.488 20.8232 187.488 20.8232C187.488 20.8232 194.988 20.8232 196.855 20.292C197.362 20.1486 197.824 19.8676 198.195 19.4774C198.566 19.0871 198.833 18.6012 198.97 18.0682C199.318 16.0665 199.488 14.0348 199.475 11.9999C199.488 9.96501 199.318 7.93335 198.97 5.93166ZM185.09 15.7813V8.21852L191.315 11.9999L185.09 15.7813Z" fill="#E42F08"/>
</g>
</g>
<defs>
<clipPath id="clip0_964_14829">
<rect width="156" height="24" fill="white" transform="translate(43.5)"/>
</clipPath>
<clipPath id="clip1_964_14829">
<rect width="24" height="24" fill="white" transform="translate(43.5)"/>
</clipPath>
<clipPath id="clip2_964_14829">
<rect width="24" height="24" fill="white" transform="translate(87.5)"/>
</clipPath>
<clipPath id="clip3_964_14829">
<rect width="24" height="19.7647" fill="white" transform="translate(131.5 2.11768)"/>
</clipPath>
<clipPath id="clip4_964_14829">
<rect width="24" height="17.6842" fill="white" transform="translate(175.5 3.15784)"/>
</clipPath>
</defs>
</svg>
